<?xml version="1.0" encoding="utf-8"?>

<!DOCTYPE svg PUBLIC "-//W3C//DTD SVG 1.1//EN" "http://www.w3.org/Graphics/SVG/1.1/DTD/svg11.dtd">
<svg version="1.1" id="Layer_1" xmlns="http://www.w3.org/2000/svg" xmlns:xlink="http://www.w3.org/1999/xlink" x="0px" y="0px"
	 viewBox="0 0 2802 1585.8871" enable-background="new 0 0 2802 1585.8871" xml:space="preserve">
<path d="M400.9729,1517.4031h2000.0542c38.7122,0,76.0627-14.1411,105.1829-39.6488
	c107.1355-93.8448,174.79-231.6548,174.79-385.2703c0-282.7698-229.2302-511.9999-512-511.9999
	c-6.8623,0-13.6885,0.1514-20.4854,0.419c0.0002-0.1401,0.0054-0.2789,0.0054-0.419c0-282.7699-229.2302-512-512-512
	c-93.2607,0-180.6898,24.9467-256,68.5131c-75.3103-43.5664-162.7393-68.5131-256-68.5131c-282.7698,0-512,229.2301-512,512
	c0,0.1481,0.0055,0.295,0.0056,0.4431C339.2524,591.6797,121,816.5748,121,1092.484c0,153.6155,67.6545,291.4254,174.7898,385.2701
	C324.9101,1503.262,362.2607,1517.4031,400.9729,1517.4031z"/>
</svg>
